<svg xmlns="http://www.w3.org/2000/svg" width="64" height="64" viewBox="0 0 24 24">
  <metadata><?xpacket begin="﻿" id="W5M0MpCehiHzreSzNTczkc9d"?>
<x:xmpmeta xmlns:x="adobe:ns:meta/" x:xmptk="Adobe XMP Core 5.6-c142 79.160924, 2017/07/13-01:06:39        ">
   <rdf:RDF xmlns:rdf="http://www.w3.org/1999/02/22-rdf-syntax-ns#">
      <rdf:Description rdf:about=""/>
   </rdf:RDF>
</x:xmpmeta>
<?xpacket end="w"?></metadata>
<defs>
    <style>
      .cls-1 {
        fill-rule: evenodd;
      }
    </style>
  </defs>
  <path id="形状_3" data-name="形状 3" class="cls-1" d="M47.047,116a0.775,0.775,0,0,1,0-1.55,1.082,1.082,0,0,0,1.077-1.085V103.238a0.772,0.772,0,0,1,.769-0.775H50.32a1.093,1.093,0,0,0-.142-1.276l-9.343-7.255a0.762,0.762,0,0,1-.074-0.066,1.1,1.1,0,0,0-1.521,0,0.762,0.762,0,0,1-.074.066l-9.343,7.255a1.093,1.093,0,0,0-.143,1.275l1.384,0.014a0.772,0.772,0,0,1,.758.775v10.114A1.082,1.082,0,0,0,32.9,114.45h8.922a1.082,1.082,0,0,0,1.076-1.085v-6.2a1.082,1.082,0,0,0-1.076-1.085H38.126a1.082,1.082,0,0,0-1.077,1.085v4.5a0.769,0.769,0,1,1-1.538,0v-4.5a2.628,2.628,0,0,1,2.614-2.635h3.692a2.628,2.628,0,0,1,2.614,2.635v6.2A2.628,2.628,0,0,1,41.818,116H32.9a2.628,2.628,0,0,1-2.615-2.635v-9.35l-0.165,0H29.308a0.762,0.762,0,0,1-.544-0.227,2.651,2.651,0,0,1,0-3.725,0.817,0.817,0,0,1,.074-0.065l9.351-7.263a2.6,2.6,0,0,1,3.619,0l9.352,7.263a0.845,0.845,0,0,1,.074.065,2.651,2.651,0,0,1,0,3.725,0.767,0.767,0,0,1-.544.228H49.661v9.352A2.628,2.628,0,0,1,47.047,116h0Z" transform="translate(-28 -92)"/>
</svg>
